<svg width="16" height="16" viewBox="0 0 16 16" fill="none" xmlns="http://www.w3.org/2000/svg">
<path d="M0.125 1.8125C0.125 1.36495 0.30279 0.935725 0.619257 0.619257C0.935725 0.30279 1.36495 0.125 1.8125 0.125H5.1875C5.63505 0.125 6.06428 0.30279 6.38074 0.619257C6.69721 0.935725 6.875 1.36495 6.875 1.8125V5.1875C6.875 5.63505 6.69721 6.06428 6.38074 6.38074C6.06428 6.69721 5.63505 6.875 5.1875 6.875H1.8125C1.36495 6.875 0.935725 6.69721 0.619257 6.38074C0.30279 6.06428 0.125 5.63505 0.125 5.1875V1.8125ZM9.125 1.8125C9.125 1.36495 9.30279 0.935725 9.61926 0.619257C9.93572 0.30279 10.3649 0.125 10.8125 0.125H14.1875C14.6351 0.125 15.0643 0.30279 15.3807 0.619257C15.6972 0.935725 15.875 1.36495 15.875 1.8125V5.1875C15.875 5.63505 15.6972 6.06428 15.3807 6.38074C15.0643 6.69721 14.6351 6.875 14.1875 6.875H10.8125C10.3649 6.875 9.93572 6.69721 9.61926 6.38074C9.30279 6.06428 9.125 5.63505 9.125 5.1875V1.8125ZM0.125 10.8125C0.125 10.3649 0.30279 9.93572 0.619257 9.61926C0.935725 9.30279 1.36495 9.125 1.8125 9.125H5.1875C5.63505 9.125 6.06428 9.30279 6.38074 9.61926C6.69721 9.93572 6.875 10.3649 6.875 10.8125V14.1875C6.875 14.6351 6.69721 15.0643 6.38074 15.3807C6.06428 15.6972 5.63505 15.875 5.1875 15.875H1.8125C1.36495 15.875 0.935725 15.6972 0.619257 15.3807C0.30279 15.0643 0.125 14.6351 0.125 14.1875V10.8125ZM9.125 10.8125C9.125 10.3649 9.30279 9.93572 9.61926 9.61926C9.93572 9.30279 10.3649 9.125 10.8125 9.125H14.1875C14.6351 9.125 15.0643 9.30279 15.3807 9.61926C15.6972 9.93572 15.875 10.3649 15.875 10.8125V14.1875C15.875 14.6351 15.6972 15.0643 15.3807 15.3807C15.0643 15.6972 14.6351 15.875 14.1875 15.875H10.8125C10.3649 15.875 9.93572 15.6972 9.61926 15.3807C9.30279 15.0643 9.125 14.6351 9.125 14.1875V10.8125Z" fill="#BC401C"/>
</svg>
