<svg width="18" height="18" viewBox="0 0 18 18" fill="none" xmlns="http://www.w3.org/2000/svg">
<path fill-rule="evenodd" clip-rule="evenodd" d="M8 1V17C8 17.5523 7.55228 18 7 18H1C0.447715 18 0 17.5523 0 17V1C0 0.447715 0.447715 0 1 0H7C7.55228 0 8 0.447715 8 1ZM11 6H17C17.5523 6 18 5.55228 18 5V1C18 0.447715 17.5523 0 17 0H11C10.4477 0 10 0.447715 10 1V5C10 5.55228 10.4477 6 11 6ZM17 18H11C10.4477 18 10 17.5523 10 17V9C10 8.44771 10.4477 8 11 8H17C17.5523 8 18 8.44771 18 9V17C18 17.5523 17.5523 18 17 18Z" fill="white"/>
</svg>
