<svg width="18" height="18" viewBox="0 0 18 18" fill="none" xmlns="http://www.w3.org/2000/svg">
<path fill-rule="evenodd" clip-rule="evenodd" d="M8.99863 0C6.51259 0 4.49727 2.01472 4.49727 4.5C4.49727 6.98528 6.51259 9 8.99863 9C11.4847 9 13.5 6.98528 13.5 4.5C13.5 2.01472 11.4847 0 8.99863 0ZM16.2012 13.284L17.9027 16.695C18.0431 16.9736 18.0292 17.305 17.866 17.5708C17.7028 17.8367 17.4135 17.9991 17.1015 18H0.896572C0.584544 17.9991 0.295255 17.8367 0.132028 17.5708C-0.0311992 17.305 -0.045085 16.9736 0.0953298 16.695L1.79684 13.284C2.56002 11.7615 4.11755 10.8001 5.82106 10.8H12.177C13.8805 10.8001 15.438 11.7615 16.2012 13.284Z" fill="#686A6E"/>
</svg>
