<svg width="18" height="13" viewBox="0 0 18 13" fill="none" xmlns="http://www.w3.org/2000/svg">
<path d="M1.50026 6.25H6.00026C6.19917 6.25 6.38993 6.17098 6.53059 6.03033C6.67124 5.88968 6.75026 5.69891 6.75026 5.5V1C6.75026 0.801088 6.67124 0.610322 6.53059 0.46967C6.38993 0.329018 6.19917 0.25 6.00026 0.25H1.50026C1.30134 0.25 1.11058 0.329018 0.969925 0.46967C0.829273 0.610322 0.750256 0.801088 0.750256 1V5.5C0.750256 5.69891 0.829273 5.88968 0.969925 6.03033C1.11058 6.17098 1.30134 6.25 1.50026 6.25ZM2.25026 1.75H5.25026V4.75H2.25026V1.75ZM16.5003 2.5H9.00026C8.80134 2.5 8.61058 2.57902 8.46993 2.71967C8.32927 2.86032 8.25026 3.05109 8.25026 3.25C8.25026 3.44891 8.32927 3.63968 8.46993 3.78033C8.61058 3.92098 8.80134 4 9.00026 4H16.5003C16.6992 4 16.8899 3.92098 17.0306 3.78033C17.1712 3.63968 17.2503 3.44891 17.2503 3.25C17.2503 3.05109 17.1712 2.86032 17.0306 2.71967C16.8899 2.57902 16.6992 2.5 16.5003 2.5ZM16.5003 10H9.00026C8.80134 10 8.61058 10.079 8.46993 10.2197C8.32927 10.3603 8.25026 10.5511 8.25026 10.75C8.25026 10.9489 8.32927 11.1397 8.46993 11.2803C8.61058 11.421 8.80134 11.5 9.00026 11.5H16.5003C16.6992 11.5 16.8899 11.421 17.0306 11.2803C17.1712 11.1397 17.2503 10.9489 17.2503 10.75C17.2503 10.5511 17.1712 10.3603 17.0306 10.2197C16.8899 10.079 16.6992 10 16.5003 10ZM2.95676 13H2.96576C3.1624 12.9994 3.35094 12.9215 3.49076 12.7833L6.52526 9.78325C6.60311 9.71625 6.66638 9.63396 6.71112 9.5415C6.75587 9.44904 6.78115 9.34837 6.78538 9.24574C6.78962 9.14311 6.77274 9.0407 6.73577 8.94486C6.6988 8.84902 6.64254 8.7618 6.57047 8.68861C6.49841 8.61541 6.41207 8.55779 6.31682 8.51934C6.22158 8.48088 6.11944 8.46239 6.01676 8.46503C5.91407 8.46767 5.81302 8.49138 5.71987 8.53468C5.62673 8.57798 5.54347 8.63995 5.47526 8.71675L2.97851 11.1835L2.03951 10.2085C1.971 10.1377 1.88923 10.0811 1.79884 10.0418C1.70845 10.0026 1.61123 9.98161 1.51272 9.97997C1.31377 9.97667 1.12165 10.0525 0.978631 10.1909C0.835613 10.3292 0.753409 10.5187 0.750104 10.7177C0.746798 10.9166 0.822662 11.1087 0.961006 11.2518L2.42651 12.775C2.4957 12.8456 2.57817 12.9018 2.66917 12.9404C2.76017 12.979 2.8579 12.9993 2.95676 13Z" fill="white"/>
</svg>
